# 3ds Max Wavefront OBJ Exporter v0.97b - (c)2007 guruware
# File Created: 20.09.2015 22:30:37

mtllib Tank_Blockout.mtl

#
# object Tank_Blockout
#

v  -27.0004 13.1958 60.6566
v  -27.0005 13.1958 -37.8692
v  27.0005 13.1958 -37.8692
v  27.0004 13.1958 60.6566
v  -27.0005 55.9611 25.9697
v  27.0005 55.9611 25.9697
v  27.0005 55.9611 -63.8861
v  -27.0005 55.9611 -63.8861
v  27.0004 36.5294 60.6566
v  -27.0004 36.5294 60.6566
v  27.0004 36.5294 -63.8861
v  -27.0004 36.5294 -63.8861
v  -54.6361 0.2299 -48.1856
v  -28.8734 0.2299 -48.1856
v  -29.0500 -0.0971 0.0000
v  -54.8127 -0.0971 0.0000
v  -28.8333 8.2385 -59.0551
v  -54.5960 8.2385 -59.0551
v  -54.5960 23.5285 -59.0551
v  -28.8333 23.5285 -59.0551
v  -54.6309 31.5204 -48.1855
v  -54.7871 31.7776 0.0000
v  -29.0244 31.7776 0.0000
v  -28.8682 31.5204 -48.1855
v  -28.8420 30.2256 -56.3376
v  -28.8433 1.5373 -56.3377
v  -54.6060 1.5373 -56.3377
v  -54.6047 30.2256 -56.3376
v  -54.6361 0.2299 48.1856
v  -28.8734 0.2299 48.1856
v  -28.8333 8.2385 59.0551
v  -28.8333 23.5285 59.0551
v  -54.5960 23.5285 59.0551
v  -54.5960 8.2385 59.0551
v  -54.6309 31.5204 48.1855
v  -28.8682 31.5204 48.1855
v  -28.8420 30.2256 56.3376
v  -28.8433 1.5373 56.3377
v  -54.6060 1.5373 56.3377
v  -54.6047 30.2256 56.3376
v  -19.2453 62.5076 18.4705
v  -19.2453 62.5076 -6.0050
v  19.2453 62.5076 -6.0050
v  19.2453 62.5076 18.4705
v  -19.2453 67.6412 -29.3136
v  19.2453 67.6412 -29.3136
v  -19.2453 71.8447 18.4705
v  19.2453 71.8447 18.4705
v  19.2453 84.6739 -6.0050
v  -19.2453 84.6739 -6.0050
v  19.2453 84.6739 -29.3136
v  -19.2453 84.6739 -29.3136
v  -31.0021 63.0830 -3.0842
v  -35.1180 60.9831 -24.3212
v  35.1180 60.9831 -24.3212
v  31.0021 63.0830 -3.0842
v  -35.1180 60.9831 -48.5743
v  35.1180 60.9831 -48.5743
v  -21.7312 60.9831 -66.7951
v  21.7312 60.9831 -66.7951
v  -31.0021 72.3695 -3.0842
v  31.0021 72.3695 -3.0842
v  35.1180 74.4694 -24.3212
v  -35.1180 74.4694 -24.3212
v  35.1180 74.4694 -48.5743
v  -35.1180 74.4694 -48.5743
v  21.7312 74.4694 -66.7951
v  -21.7312 74.4694 -66.7951
v  27.0305 14.4381 55.4901
v  55.4318 14.4381 55.4901
v  55.4318 14.4381 68.5608
v  27.0305 14.4381 68.5608
v  27.0305 36.5294 68.5608
v  55.4318 36.5294 68.5608
v  55.4318 53.0857 33.5206
v  27.0305 53.0857 33.5206
v  55.4318 26.7503 41.1613
v  43.0712 33.1520 -61.0358
v  27.0305 33.1520 -61.0358
v  27.0305 53.0857 -61.0358
v  43.0712 53.0857 -61.0358
v  27.0305 26.7503 -32.7034
v  27.0305 53.0857 -32.7542
v  55.4318 26.7503 -32.7034
v  55.4318 53.0857 -32.7542
v  27.0305 26.7503 41.1613
v  -27.0305 14.4381 55.4901
v  -27.0305 14.4381 68.5608
v  -55.4318 14.4381 68.5608
v  -55.4318 14.4381 55.4901
v  -27.0305 36.5295 68.5608
v  -27.0305 53.0857 33.5206
v  -55.4318 53.0857 33.5206
v  -55.4318 36.5295 68.5608
v  -55.4318 26.7503 41.1613
v  -43.0712 33.1519 -61.0358
v  -43.0712 53.0857 -61.0358
v  -27.0305 53.0857 -61.0358
v  -27.0305 33.1519 -61.0358
v  -27.0305 53.0857 -32.7542
v  -27.0305 26.7503 -32.7034
v  -55.4318 26.7503 -32.7034
v  -55.4318 53.0857 -32.7542
v  -27.0305 26.7503 41.1613
v  28.3643 0.2299 -48.1856
v  54.1270 0.2299 -48.1856
v  53.9504 -0.0971 0.0000
v  28.1877 -0.0971 0.0000
v  54.1672 8.2385 -59.0551
v  28.4045 8.2385 -59.0551
v  28.4045 23.5285 -59.0551
v  54.1672 23.5285 -59.0551
v  28.3695 31.5204 -48.1855
v  28.2134 31.7776 0.0000
v  53.9761 31.7776 0.0000
v  54.1322 31.5204 -48.1855
v  54.1584 30.2256 -56.3376
v  54.1571 1.5373 -56.3378
v  28.3944 1.5373 -56.3378
v  28.3957 30.2256 -56.3376
v  28.3643 0.2299 48.1856
v  54.1270 0.2299 48.1856
v  54.1672 8.2385 59.0551
v  54.1672 23.5285 59.0551
v  28.4045 23.5285 59.0551
v  28.4045 8.2385 59.0551
v  28.3695 31.5204 48.1855
v  54.1322 31.5204 48.1855
v  54.1584 30.2256 56.3376
v  54.1571 1.5373 56.3378
v  28.3944 1.5373 56.3378
v  28.3957 30.2256 56.3376
v  19.1266 55.8435 -40.0717
v  19.1266 61.2071 -40.0717
v  19.1266 61.2071 -26.1486
v  19.1266 55.8435 -26.1486
v  10.1771 55.8435 -50.7373
v  10.1771 61.2071 -50.7373
v  -3.5345 55.8435 -53.1550
v  -3.5345 61.2071 -53.1550
v  -15.5922 55.8435 -46.1935
v  -15.5922 61.2071 -46.1935
v  -20.3541 55.8435 -33.1101
v  -20.3541 61.2071 -33.1101
v  -15.5922 55.8435 -20.0268
v  -15.5922 61.2071 -20.0268
v  -3.5345 55.8435 -13.0653
v  -3.5345 61.2071 -13.0653
v  10.1771 55.8435 -15.4830
v  10.1771 61.2071 -15.4830
v  7.2052 77.0280 -1.7772
v  7.2052 77.0280 20.7387
v  7.2052 71.7830 20.7387
v  7.2052 71.7830 -1.7772
v  3.8338 81.0459 -1.7772
v  3.8338 81.0459 20.7387
v  -1.3315 81.9567 -1.7772
v  -1.3315 81.9567 20.7387
v  -5.8737 79.3342 -1.7772
v  -5.8737 79.3342 20.7387
v  -7.6676 74.4055 -1.7772
v  -7.6676 74.4055 20.7387
v  -5.8737 69.4769 -1.7772
v  -5.8737 69.4769 20.7387
v  -1.3315 66.8544 -1.7772
v  -1.3315 66.8544 20.7387
v  3.8338 67.7652 -1.7772
v  3.8338 67.7652 20.7387
v  4.3363 75.9838 134.8545
v  0.0000 74.4055 134.8545
v  4.3363 72.8272 134.8545
v  2.3073 78.4019 134.8545
v  -0.8013 78.9500 134.8545
v  -3.5350 77.3717 134.8545
v  -4.6146 74.4055 134.8545
v  -3.5350 71.4393 134.8545
v  -0.8013 69.8610 134.8545
v  2.3073 70.4091 134.8545
v  5.4539 76.3906 30.7796
v  5.4539 72.4205 30.7796
v  2.9020 79.4319 30.7796
v  -1.0078 80.1213 30.7796
v  -4.4461 78.1362 30.7796
v  -5.8039 74.4055 30.7796
v  -4.4461 70.6748 30.7796
v  -1.0078 68.6898 30.7796
v  2.9020 69.3792 30.7796
v  5.4539 76.3906 127.6389
v  5.4539 72.4204 127.6389
v  2.9020 79.4319 127.6389
v  -1.0078 80.1213 127.6389
v  -4.4461 78.1362 127.6389
v  -5.8039 74.4055 127.6389
v  -4.4461 70.6748 127.6389
v  -1.0078 68.6898 127.6389
v  2.9020 69.3792 127.6389
v  -23.7815 60.9831 7.2021
v  -23.7815 60.9831 -15.3031
v  23.7815 60.9831 -15.3031
v  23.7815 60.9831 7.2021
v  -23.7815 60.9831 -53.1837
v  23.7815 60.9831 -53.1837
v  -23.7815 68.5888 7.2021
v  23.7815 68.5888 7.2021
v  23.7815 81.3637 -15.3031
v  -23.7815 81.3637 -15.3031
v  23.7815 81.3637 -53.1837
v  -23.7815 81.3637 -53.1837
v  17.2340 60.9831 -57.3364
v  -17.2340 60.9831 -57.3364
v  -17.2340 81.3637 -57.3364
v  17.2340 81.3637 -57.3364
# 212 vertices

vn 0.0000 -1.0000 -0.0000
vn 0.0000 1.0000 -0.0000
vn 0.0000 0.0000 1.0000
vn 1.0000 0.0000 0.0000
vn 0.0000 -0.2633 -0.9647
vn -1.0000 0.0000 0.0000
vn 0.0000 0.4004 0.9164
vn 1.0000 -0.0000 0.0000
vn 0.0000 0.0000 -1.0000
vn -1.0000 -0.0000 0.0000
vn -0.0000 -0.9545 -0.2982
vn 0.0000 -0.9539 -0.3003
vn -0.0000 -1.0000 0.0000
vn 0.0000 -0.0494 -0.9988
vn 0.0000 -0.0495 -0.9988
vn 0.0000 0.0495 -0.9988
vn 0.0000 0.9560 -0.2934
vn 0.0000 0.9554 -0.2952
vn 1.0000 -0.0000 0.0057
vn 1.0000 -0.0001 0.0064
vn 1.0000 -0.0000 0.0063
vn 1.0000 0.0000 0.0057
vn 0.0000 -0.8364 -0.5481
vn 0.0000 0.0988 -0.9951
vn 0.0000 -0.0988 -0.9951
vn 0.0000 0.8388 -0.5444
vn 1.0000 -0.0001 0.0000
vn 1.0000 -0.0003 0.0000
vn 1.0000 -0.0002 0.0064
vn 1.0000 -0.0001 0.0057
vn -1.0000 0.0001 -0.0058
vn -1.0000 0.0000 -0.0065
vn -1.0000 0.0001 -0.0065
vn -1.0000 0.0002 -0.0058
vn -1.0000 0.0000 -0.0059
vn -1.0000 0.0001 0.0000
vn -1.0000 0.0003 -0.0000
vn -0.0000 -0.9545 0.2982
vn 0.0000 -0.9539 0.3003
vn 0.0000 -0.0494 0.9988
vn 0.0000 0.0495 0.9988
vn 0.0000 -0.0495 0.9988
vn 0.0000 0.9560 0.2934
vn 0.0000 0.9554 0.2952
vn 1.0000 -0.0000 -0.0057
vn 1.0000 0.0000 -0.0057
vn 1.0000 -0.0000 -0.0063
vn 1.0000 -0.0001 -0.0064
vn 0.0000 -0.8364 0.5481
vn 0.0000 0.0988 0.9951
vn 0.0000 -0.0988 0.9951
vn 0.0000 0.8388 0.5444
vn 1.0000 -0.0001 -0.0057
vn 1.0000 -0.0002 -0.0064
vn -1.0000 0.0001 0.0058
vn -1.0000 0.0002 0.0058
vn -1.0000 0.0001 0.0065
vn -1.0000 0.0000 0.0065
vn -1.0000 0.0000 0.0059
vn 0.0000 -0.9336 -0.3582
vn 0.0000 -0.7434 -0.6689
vn 0.0000 0.4231 0.9061
vn 0.0000 0.8435 0.5371
vn 0.0000 -0.0000 1.0000
vn 1.0000 0.0000 -0.0000
vn 1.0000 -0.0000 -0.0000
vn -1.0000 0.0000 -0.0000
vn -1.0000 -0.0000 -0.0000
vn 0.0000 -0.9272 0.3746
vn 0.0000 0.9272 0.3746
vn 0.9462 0.0000 0.3237
vn 0.6106 0.0000 -0.7920
vn -0.6106 0.0000 -0.7920
vn -0.9462 0.0000 0.3237
vn -0.0000 -1.0000 -0.0000
vn 0.0000 0.4600 0.8879
vn 0.0000 -0.0000 -1.0000
vn 0.0000 -0.7348 -0.6783
vn 0.0000 -0.9564 -0.2919
vn 0.0000 -0.9313 -0.3642
vn 0.7920 -0.0002 -0.6106
vn -0.0000 -0.2739 -0.9617
vn 0.0000 -1.0000 0.0000
vn -0.0000 0.4600 0.8879
vn -0.0000 -0.0000 -1.0000
vn -0.0000 -0.7348 -0.6783
vn -0.0000 -0.9564 -0.2919
vn -0.0000 1.0000 -0.0000
vn -0.7920 -0.0002 -0.6106
vn 0.0000 -0.2739 -0.9617
vn -0.0000 0.0000 1.0000
vn 1.0000 -0.0001 -0.0000
vn -1.0000 -0.0000 -0.0065
vn -1.0000 -0.0000 0.0065
vn 0.8830 -0.0000 -0.4693
vn 0.8830 -0.0000 0.4693
vn 0.3398 -0.0000 -0.9405
vn -0.1081 -0.0000 -0.9941
vn -0.6114 -0.0000 -0.7913
vn -0.6114 -0.0000 0.7913
vn -0.1081 -0.0000 0.9941
vn 0.3398 -0.0000 0.9405
vn 0.9849 0.1730 0.0000
vn 0.9849 -0.1730 0.0000
vn 0.9849 -0.1730 -0.0000
vn 0.7210 0.6930 0.0000
vn -0.2671 0.9637 0.0000
vn -0.2671 0.9637 -0.0000
vn -0.9214 0.3887 -0.0000
vn -0.9214 -0.3887 -0.0000
vn -0.2671 -0.9637 -0.0000
vn 0.7210 -0.6930 -0.0000
vn 0.9348 0.1432 0.3250
vn 0.9348 -0.1432 0.3250
vn 0.9256 -0.1815 0.3321
vn 0.9256 0.1815 0.3321
vn 0.6908 0.5472 0.4726
vn 0.5789 0.6348 0.5117
vn -0.2694 0.7642 0.5860
vn -0.1885 0.7817 0.5945
vn -0.8727 0.3153 0.3728
vn -0.8280 0.3933 0.3996
vn -0.9503 0.0000 0.3114
vn -0.8727 -0.3153 0.3728
vn -0.8280 -0.3933 0.3996
vn -0.2694 -0.7642 0.5860
vn -0.1885 -0.7817 0.5945
vn 0.6908 -0.5472 0.4726
vn 0.5789 -0.6348 0.5117
vn -0.9214 0.3887 0.0000
vn 0.9370 0.1819 0.2981
vn 0.5990 0.6507 0.4666
vn 0.7014 0.5666 0.4325
vn 0.9450 0.1470 0.2922
vn -0.1976 0.8123 0.5487
vn -0.2735 0.7952 0.5412
vn -0.8442 0.3971 0.3601
vn -0.8836 0.3245 0.3374
vn -0.9602 0.0000 0.2794
vn -0.8442 -0.3971 0.3601
vn -0.8836 -0.3245 0.3374
vn -0.1976 -0.8123 0.5487
vn -0.2735 -0.7952 0.5412
vn 0.5990 -0.6507 0.4666
vn 0.7014 -0.5666 0.4325
vn 0.9370 -0.1819 0.2981
vn 0.9450 -0.1470 0.2922
vn 0.0000 0.3959 0.9183
vn 0.0000 0.8354 0.5496
vn 0.8180 0.0000 -0.5753
vn -0.8180 0.0000 -0.5753
vn -0.3381 0.0000 -0.9411
vn 0.3381 0.0000 -0.9411
# 153 vertex normals

vt 1.0000 0.0000 0.0000
vt 1.0000 1.0000 0.0000
vt 0.0000 1.0000 0.0000
vt 0.0000 0.0000 0.0000
vt 0.6864 0.9080 0.0000
vt 0.0000 0.9080 0.0000
vt 0.0000 0.5032 0.0000
vt 0.6864 0.6166 0.0000
vt 0.6864 1.0000 0.0000
vt 0.0632 0.0000 0.0000
vt 0.3454 0.0000 0.0000
vt 0.3410 0.0000 0.0000
vt 0.6233 0.0000 0.0000
vt 0.6431 0.0402 0.0000
vt 0.0000 0.9770 0.0000
vt 0.6029 0.1217 0.0000
vt 0.6864 0.9770 0.0000
vt 0.0835 0.1217 0.0000
vt 0.0434 0.0402 0.0000
vt 0.6561 0.5194 0.0000
vt 0.0000 0.8159 0.0000
vt 0.0304 0.5194 0.0000
vt 1.0000 0.5000 0.0000
vt 0.0000 0.5000 0.0000
vt 0.5000 0.0000 0.0000
vt 0.5000 1.0000 0.0000
vt 1.0000 0.3333 0.0000
vt 0.0000 0.3333 0.0000
vt 1.0000 0.6667 0.0000
vt 0.0000 0.6667 0.0000
vt 0.3333 0.0000 0.0000
vt 0.3333 1.0000 0.0000
vt 0.6667 0.0000 0.0000
vt 0.6667 1.0000 0.0000
vt 1.0000 0.3371 0.0000
vt 0.0000 0.3371 0.0000
vt 0.0000 0.8233 0.0000
vt 1.0000 0.8233 0.0000
vt 0.8056 0.0000 1.0000
vt 0.8056 1.0000 1.0000
vt 0.6944 1.0000 1.0000
vt 0.6944 0.0000 1.0000
vt 0.9167 0.0000 1.0000
vt 0.9167 1.0000 1.0000
vt 1.0278 0.0000 1.0000
vt 1.0278 1.0000 1.0000
vt 0.1389 0.0000 1.0000
vt 0.1389 1.0000 1.0000
vt 0.0278 1.0000 1.0000
vt 0.0278 0.0000 1.0000
vt 0.2500 0.0000 1.0000
vt 0.2500 1.0000 1.0000
vt 0.3611 0.0000 1.0000
vt 0.3611 1.0000 1.0000
vt 0.4722 0.0000 1.0000
vt 0.4722 1.0000 1.0000
vt 0.5833 0.0000 1.0000
vt 0.5833 1.0000 1.0000
vt 0.8056 0.1003 1.0000
vt 0.6944 0.1003 1.0000
vt 0.9167 0.1003 1.0000
vt 1.0278 0.1003 1.0000
vt 0.1389 0.1003 1.0000
vt 0.0278 0.1003 1.0000
vt 0.2500 0.1003 1.0000
vt 0.3611 0.1003 1.0000
vt 0.4722 0.1003 1.0000
vt 0.5833 0.1003 1.0000
vt 0.4145 0.7349 0.2500
vt 0.5000 0.5000 0.2500
vt 0.5855 0.7349 0.2500
vt 0.2835 0.6250 0.2500
vt 0.2538 0.4566 0.2500
vt 0.3393 0.3085 0.2500
vt 0.5000 0.2500 0.2500
vt 0.6607 0.3085 0.2500
vt 0.7462 0.4566 0.2500
vt 0.7165 0.6250 0.2500
vt 0.8056 0.1386 1.0000
vt 0.6944 0.1386 1.0000
vt 0.9167 0.1386 1.0000
vt 1.0278 0.1386 1.0000
vt 0.1389 0.1386 1.0000
vt 0.0278 0.1386 1.0000
vt 0.2500 0.1386 1.0000
vt 0.3611 0.1386 1.0000
vt 0.4722 0.1386 1.0000
vt 0.5833 0.1386 1.0000
vt 0.3290 0.9698 0.2500
vt 0.0670 0.7500 0.2500
vt 0.0076 0.4132 0.2500
vt 0.1786 0.1170 0.2500
vt 0.5000 0.0000 0.2500
vt 0.8214 0.1170 0.2500
vt 0.9924 0.4132 0.2500
vt 0.9330 0.7500 0.2500
vt 0.6710 0.9698 0.2500
vt 1.0000 0.9506 0.0000
vt 0.0000 0.9506 0.0000
vt 0.9506 0.0000 0.0000
vt 0.9506 1.0000 0.0000
vt 0.0494 0.0000 0.0000
vt 0.0494 1.0000 0.0000
# 103 texture coords

g Tank_Blockout
usemtl wire_115115115
s 2
f 1/1/1 2/2/1 3/3/1 4/4/1 
s 4
f 5/4/2 6/1/2 7/2/2 8/3/2 
s 8
f 1/4/3 4/1/3 9/2/3 10/3/3 
s 16
f 4/4/4 3/1/4 11/2/4 9/3/4 
s 32
f 3/4/5 2/1/5 12/2/5 11/3/5 
s 64
f 2/4/6 1/1/6 10/2/6 12/3/6 
s off
f 10/4/7 9/1/7 6/1/7 5/4/7 
f 9/1/8 11/2/8 7/2/8 6/1/8 
f 11/2/9 12/3/9 8/3/9 7/2/9 
f 12/3/10 10/4/10 5/4/10 8/3/10 
s 1
f 13/5/11 14/6/12 15/7/13 16/8/13 
s 2
f 17/3/14 18/9/15 19/9/16 20/3/16 
s 1
f 21/10/17 22/11/2 23/12/2 24/13/18 
s 4
f 25/14/19 26/15/20 17/3/21 20/16/22 
s 1
f 26/15/23 14/6/12 13/5/11 27/17/23 
s 2
f 25/14/24 20/16/16 19/18/16 28/19/24 
f 17/3/14 26/15/25 27/17/25 18/9/15 
s 1
f 24/13/18 25/14/26 28/19/26 21/10/17 
s 4
f 23/20/27 15/21/28 14/6/29 24/13/30 
f 28/19/31 27/17/32 13/5/33 21/10/34 
f 24/13/30 14/6/29 26/15/20 25/14/19 
f 19/18/35 18/9/32 27/17/32 28/19/31 
f 21/10/34 13/5/33 16/8/36 22/22/37 
s 1
f 29/5/38 16/8/13 15/7/13 30/6/39 
s 2
f 31/3/40 32/3/41 33/9/41 34/9/42 
s 1
f 35/10/43 36/13/44 23/12/2 22/11/2 
s 4
f 37/14/45 32/16/46 31/3/47 38/15/48 
s 1
f 38/15/49 39/17/49 29/5/38 30/6/39 
s 2
f 37/14/50 40/19/50 33/18/41 32/16/41 
f 31/3/40 34/9/42 39/17/51 38/15/51 
s 1
f 36/13/44 35/10/43 40/19/52 37/14/52 
s 4
f 23/20/27 36/13/53 30/6/54 15/21/28 
f 40/19/55 35/10/56 29/5/57 39/17/58 
f 36/13/53 37/14/45 38/15/48 30/6/54 
f 33/18/59 40/19/55 39/17/58 34/9/58 
f 35/10/56 22/22/37 16/8/36 29/5/57 
s 2
f 41/1/1 42/23/60 43/24/60 44/4/1 
f 42/23/60 45/2/61 46/3/61 43/24/60 
s 4
f 47/4/62 48/1/62 49/23/63 50/24/63 
f 50/24/63 49/23/63 51/2/2 52/3/2 
s 8
f 41/4/64 44/1/64 48/2/64 47/3/64 
s 16
f 44/4/65 43/25/65 49/26/65 48/3/66 
f 43/25/65 46/1/65 51/2/65 49/26/65 
s 32
f 46/4/9 45/1/9 52/2/9 51/3/9 
s 64
f 45/4/67 42/25/68 50/26/67 52/3/67 
f 42/25/68 41/1/68 47/2/67 50/26/67 
s off
f 53/1/69 54/27/69 55/28/69 56/4/69 
f 54/27/1 57/29/1 58/30/1 55/28/1 
f 57/29/1 59/2/1 60/3/1 58/30/1 
f 61/4/70 62/1/70 63/27/70 64/28/70 
f 64/28/2 63/27/2 65/29/2 66/30/2 
f 66/30/2 65/29/2 67/2/2 68/3/2 
f 53/4/3 56/1/3 62/2/3 61/3/3 
f 56/4/71 55/31/71 63/32/71 62/3/71 
f 55/31/65 58/33/65 65/34/65 63/32/65 
f 58/33/72 60/1/72 67/2/72 65/34/72 
f 60/4/9 59/1/9 68/2/9 67/3/9 
f 59/4/73 57/31/73 66/32/73 68/3/73 
f 57/31/67 54/33/67 64/34/67 66/32/67 
f 54/33/74 53/1/74 61/2/74 64/34/74 
s 2
f 69/35/75 70/36/75 71/4/75 72/1/75 
s off
f 73/4/76 74/1/76 75/1/76 76/36/76 
f 74/1/65 77/35/65 75/1/65 
f 78/2/77 79/3/77 80/3/77 81/2/77 
f 79/3/67 82/37/67 83/37/67 80/3/67 
s 2
f 79/2/78 78/3/78 84/37/79 82/38/80 
s 4
f 81/2/2 80/3/2 83/37/2 85/38/2 
s off
f 78/2/81 81/2/81 85/38/81 84/38/81 
f 82/37/67 86/36/67 76/36/67 83/37/67 
s 2
f 82/38/80 84/37/79 77/36/1 86/35/1 
s 4
f 85/38/2 83/37/2 76/36/2 75/1/2 
s off
f 84/38/65 85/38/65 75/1/65 77/35/65 
f 86/36/67 73/4/67 76/36/67 
f 73/1/67 86/35/67 69/35/67 72/1/67 
f 86/35/82 77/36/82 70/36/82 69/35/82 
f 77/36/65 74/4/65 71/4/65 70/36/65 
f 74/4/64 73/1/64 72/1/64 71/4/64 
s 2
f 87/35/83 88/1/13 89/4/83 90/36/83 
s off
f 91/4/84 92/36/84 93/1/84 94/1/84 
f 94/1/67 93/1/67 95/35/67 
f 96/2/85 97/2/85 98/3/85 99/3/85 
f 99/3/65 98/3/65 100/37/65 101/37/65 
s 2
f 99/2/86 101/38/80 102/37/87 96/3/86 
s 4
f 97/2/88 103/38/88 100/37/88 98/3/88 
s off
f 96/2/89 102/38/89 103/38/89 97/2/89 
f 101/37/65 100/37/65 92/36/65 104/36/65 
s 2
f 101/38/80 104/35/83 95/36/83 102/37/87 
s 4
f 103/38/88 93/1/88 92/36/88 100/37/88 
s off
f 102/38/67 95/35/67 93/1/67 103/38/67 
f 104/36/65 92/36/65 91/4/65 
f 91/1/65 88/1/65 87/35/65 104/35/65 
f 104/35/90 87/35/90 90/36/90 95/36/90 
f 95/36/67 90/36/67 89/4/67 94/4/67 
f 94/4/91 89/4/91 88/1/91 91/1/91 
s 1
f 105/5/11 106/6/12 107/7/13 108/8/13 
s 2
f 109/3/14 110/9/15 111/9/16 112/3/16 
s 1
f 113/10/17 114/11/2 115/12/2 116/13/18 
s 4
f 117/14/19 118/15/20 109/3/21 112/16/22 
s 1
f 118/15/23 106/6/12 105/5/11 119/17/23 
s 2
f 117/14/24 112/16/16 111/18/16 120/19/24 
f 109/3/14 118/15/25 119/17/25 110/9/15 
s 1
f 116/13/18 117/14/26 120/19/26 113/10/17 
s 4
f 115/20/92 107/21/28 106/6/29 116/13/30 
f 120/19/31 119/17/32 105/5/33 113/10/34 
f 116/13/30 106/6/29 118/15/20 117/14/19 
f 111/18/35 110/9/93 119/17/32 120/19/31 
f 113/10/34 105/5/33 108/8/36 114/22/37 
s 1
f 121/5/38 108/8/13 107/7/13 122/6/39 
s 2
f 123/3/40 124/3/41 125/9/41 126/9/42 
s 1
f 127/10/43 128/13/44 115/12/2 114/11/2 
s 4
f 129/14/45 124/16/46 123/3/47 130/15/48 
s 1
f 130/15/49 131/17/49 121/5/38 122/6/39 
s 2
f 129/14/50 132/19/50 125/18/41 124/16/41 
f 123/3/40 126/9/42 131/17/51 130/15/51 
s 1
f 128/13/44 127/10/43 132/19/52 129/14/52 
s 4
f 115/20/92 128/13/53 122/6/54 107/21/28 
f 132/19/55 127/10/56 121/5/57 131/17/58 
f 128/13/53 129/14/45 130/15/48 122/6/54 
f 125/18/59 132/19/55 131/17/58 126/9/94 
f 127/10/56 114/22/37 108/8/36 121/5/57 
s 8
f 133/39/95 134/40/95 135/41/96 136/42/96 
f 137/43/97 138/44/97 134/40/95 133/39/95 
f 139/45/98 140/46/98 138/44/97 137/43/97 
f 141/47/99 142/48/99 140/49/98 139/50/98 
f 143/51/10 144/52/68 142/48/99 141/47/99 
f 145/53/100 146/54/100 144/52/68 143/51/10 
f 147/55/101 148/56/101 146/54/100 145/53/100 
f 149/57/102 150/58/102 148/56/101 147/55/101 
f 136/42/96 135/41/96 150/58/102 149/57/102 
s 1
f 151/39/103 152/59/103 153/60/104 154/42/105 
f 155/43/106 156/61/106 152/59/103 151/39/103 
f 157/45/107 158/62/108 156/61/106 155/43/106 
f 159/47/109 160/63/109 158/64/108 157/50/107 
f 161/51/67 162/65/67 160/63/109 159/47/109 
f 163/53/110 164/66/110 162/65/67 161/51/67 
f 165/55/111 166/67/111 164/66/110 163/53/110 
f 167/57/112 168/68/112 166/67/111 165/55/111 
f 154/42/105 153/60/104 168/68/112 167/57/112 
f 169/69/3 170/70/3 171/71/3 
f 169/69/3 172/72/3 170/70/3 
f 172/72/3 173/73/3 170/70/3 
f 173/73/3 174/74/3 170/70/3 
f 174/74/3 175/75/3 170/70/3 
f 175/75/3 176/76/3 170/70/3 
f 176/76/3 177/77/3 170/70/3 
f 177/77/3 178/78/3 170/70/3 
f 178/78/3 171/71/3 170/70/3 
s 2
f 179/79/113 180/80/114 153/60/115 152/59/116 
f 181/81/117 179/79/113 152/59/116 156/61/118 
f 182/82/119 181/81/117 156/61/118 158/62/120 
f 183/83/121 182/84/119 158/64/120 160/63/122 
f 184/85/123 183/83/121 160/63/122 162/65/123 
f 185/86/124 184/85/123 162/65/123 164/66/125 
f 186/87/126 185/86/124 164/66/125 166/67/127 
f 187/88/128 186/87/126 166/67/127 168/68/129 
f 180/80/114 187/88/128 168/68/129 153/60/115 
s 1
f 188/40/103 189/41/105 180/80/105 179/79/103 
f 190/44/106 188/40/103 179/79/103 181/81/106 
f 191/46/107 190/44/106 181/81/106 182/82/107 
f 192/48/130 191/49/107 182/84/107 183/83/130 
f 193/52/68 192/48/130 183/83/130 184/85/6 
f 194/54/110 193/52/68 184/85/6 185/86/110 
f 195/56/111 194/54/110 185/86/110 186/87/111 
f 196/58/112 195/56/111 186/87/111 187/88/112 
f 189/41/105 196/58/112 187/88/112 180/80/105 
s 6
f 188/89/131 190/90/132 172/72/133 169/69/134 
f 190/90/132 191/91/135 173/73/136 172/72/133 
f 191/91/135 192/92/137 174/74/138 173/73/136 
f 192/92/137 193/93/139 175/75/139 174/74/138 
f 193/93/139 194/94/140 176/76/141 175/75/139 
f 194/94/140 195/95/142 177/77/143 176/76/141 
f 195/95/142 196/96/144 178/78/145 177/77/143 
f 196/96/144 189/97/146 171/71/147 178/78/145 
f 189/97/146 188/89/131 169/69/134 171/71/147 
s 2
f 197/1/1 198/23/1 199/24/1 200/4/1 
f 201/98/1 202/99/1 199/24/1 198/23/1 
s 4
f 203/4/148 204/1/148 205/23/149 206/24/149 
f 205/23/149 207/98/2 208/99/2 206/24/149 
s 8
f 197/4/3 200/1/3 204/2/3 203/3/3 
s 16
f 200/4/65 199/25/65 205/26/65 204/3/4 
f 202/100/150 207/101/150 205/26/65 199/25/65 
s 32
f 209/4/9 210/1/9 211/2/9 212/3/9 
s 64
f 201/102/151 208/103/151 211/3/152 210/4/152 
f 198/25/67 197/1/67 203/2/67 206/26/67 
s 2
f 210/2/1 209/3/1 202/99/1 201/98/1 
s 4
f 212/2/2 211/3/2 208/99/2 207/98/2 
s 16
f 209/1/153 212/2/153 207/101/150 202/100/150 
s 64
f 198/25/67 206/26/67 208/103/151 201/102/151 
# 175 polygons - 13 triangles

