# 3ds Max Wavefront OBJ Exporter v0.97b - (c)2007 guruware
# File Created: 20.09.2015 22:29:54

mtllib Torret_Blockout.mtl

#
# object Torret_Blockout
#

v  36.0555 0.0000 -0.0000
v  18.0278 0.0000 -31.2250
v  18.0278 20.0000 -31.2250
v  36.0555 20.0000 -0.0000
v  -18.0278 0.0000 -31.2250
v  -18.0278 20.0000 -31.2250
v  -36.0555 0.0000 0.0000
v  -36.0555 20.0000 0.0000
v  -18.0278 0.0000 31.2250
v  -18.0278 20.0000 31.2250
v  18.0278 0.0000 31.2250
v  18.0278 20.0000 31.2250
v  28.2360 20.0000 -0.0000
v  14.1180 20.0000 -24.4531
v  14.1180 40.0000 -24.4531
v  28.2360 40.0000 -0.0000
v  -14.1180 20.0000 -24.4531
v  -14.1180 40.0000 -24.4531
v  -28.2360 20.0000 0.0000
v  -28.2360 40.0000 0.0000
v  -14.1180 20.0000 24.4531
v  -14.1180 40.0000 24.4531
v  14.1180 20.0000 24.4531
v  14.1180 40.0000 24.4531
v  29.3036 32.5374 9.7594
v  29.3036 32.5374 33.2408
v  -29.3036 32.5374 33.2408
v  -29.3036 32.5374 9.7594
v  -29.3036 32.5374 -22.9729
v  29.3036 32.5374 -22.9729
v  29.3036 57.6505 9.7594
v  -29.3036 57.6505 9.7594
v  -29.3036 41.9092 33.2408
v  29.3036 41.9092 33.2408
v  -29.3036 57.6505 -22.9729
v  29.3036 57.6505 -22.9729
v  -21.2358 57.6505 -34.0973
v  21.2358 57.6505 -34.0973
v  21.2358 32.5374 -34.0973
v  -21.2358 32.5374 -34.0973
v  10.7054 49.8412 8.7005
v  10.7054 49.8412 31.2164
v  10.7054 42.0483 31.2164
v  10.7054 42.0483 8.7005
v  5.6962 55.8109 8.7005
v  5.6962 55.8109 31.2164
v  -1.9783 57.1641 8.7005
v  -1.9783 57.1641 31.2164
v  -8.7271 53.2677 8.7005
v  -8.7271 53.2677 31.2164
v  -11.3924 45.9448 8.7005
v  -11.3924 45.9448 31.2164
v  -8.7271 38.6219 8.7005
v  -8.7271 38.6219 31.2164
v  -1.9783 34.7254 8.7005
v  -1.9783 34.7254 31.2164
v  5.6962 36.0787 8.7005
v  5.6962 36.0786 31.2164
v  6.4429 48.2898 89.6919
v  0.0000 45.9448 89.6919
v  6.4429 43.5998 89.6919
v  3.4282 51.8825 89.6919
v  -1.1906 52.6969 89.6919
v  -5.2523 50.3519 89.6919
v  -6.8563 45.9448 89.6919
v  -5.2523 41.5376 89.6919
v  -1.1906 39.1926 89.6919
v  3.4282 40.0070 89.6919
v  8.1033 48.8942 41.2573
v  8.1033 42.9954 41.2573
v  4.3117 53.4129 41.2573
v  -1.4974 54.4372 41.2573
v  -6.6059 51.4878 41.2573
v  -8.6234 45.9448 41.2573
v  -6.6059 40.4018 41.2573
v  -1.4974 37.4524 41.2573
v  4.3117 38.4767 41.2573
v  8.1033 48.8941 82.4762
v  8.1033 42.9954 82.4762
v  4.3117 53.4128 82.4762
v  -1.4974 54.4371 82.4762
v  -6.6059 51.4878 82.4762
v  -8.6234 45.9448 82.4762
v  -6.6059 40.4018 82.4762
v  -1.4974 37.4524 82.4762
v  4.3117 38.4767 82.4762
# 86 vertices

vn 1.0000 0.0000 0.0000
vn 0.5000 0.0000 -0.8660
vn 1.0000 0.0000 -0.0000
vn -0.5000 0.0000 -0.8660
vn -1.0000 0.0000 0.0000
vn -0.5000 0.0000 0.8660
vn 0.5000 0.0000 0.8660
vn 0.0000 1.0000 -0.0000
vn 0.0000 -1.0000 -0.0000
vn 0.0000 0.9567 0.2910
vn 0.0000 0.8306 0.5568
vn 0.0000 0.0000 1.0000
vn 0.9512 0.0000 -0.3086
vn 0.0000 0.0000 -1.0000
vn -0.8095 0.0000 -0.5871
vn -0.9512 0.0000 -0.3086
vn -1.0000 0.0000 -0.0000
vn -1.0000 -0.0000 0.0000
vn 0.8095 0.0000 -0.5871
vn 0.9397 0.3420 -0.0000
vn 0.9397 0.3420 0.0000
vn 0.9397 -0.3420 -0.0000
vn 0.5000 0.8660 0.0000
vn -0.1736 0.9848 0.0000
vn -0.7660 0.6428 0.0000
vn -0.7660 -0.6428 -0.0000
vn -0.1736 -0.9848 -0.0000
vn 0.5000 -0.8660 -0.0000
vn 0.9059 0.3297 0.2659
vn 0.9059 -0.3297 0.2659
vn 0.4820 0.8349 0.2659
vn -0.1674 0.9494 0.2659
vn -0.7385 0.6197 0.2659
vn -0.9640 0.0000 0.2659
vn -0.7385 -0.6197 0.2659
vn -0.1674 -0.9494 0.2659
vn 0.4820 -0.8349 0.2659
vn 0.9127 0.3322 0.2379
vn 0.4856 0.8412 0.2379
vn -0.1687 0.9565 0.2379
vn -0.7441 0.6243 0.2379
vn -0.9713 0.0000 0.2379
vn -0.7441 -0.6243 0.2379
vn -0.1687 -0.9565 0.2379
vn 0.4856 -0.8412 0.2379
vn 0.9127 -0.3322 0.2379
# 46 vertex normals

vt 0.7500 0.0000 1.0000
vt 0.9167 0.0000 1.0000
vt 0.9167 0.5000 1.0000
vt 0.7500 0.5000 1.0000
vt 1.0833 0.0000 1.0000
vt 1.0833 0.5000 1.0000
vt 0.0833 0.0000 1.0000
vt 0.2500 0.0000 1.0000
vt 0.2500 0.5000 1.0000
vt 0.0833 0.5000 1.0000
vt 0.4167 0.0000 1.0000
vt 0.4167 0.5000 1.0000
vt 0.5833 0.0000 1.0000
vt 0.5833 0.5000 1.0000
vt 0.9167 1.0000 1.0000
vt 0.7500 1.0000 1.0000
vt 1.0833 1.0000 1.0000
vt 0.2500 1.0000 1.0000
vt 0.0833 1.0000 1.0000
vt 0.4167 1.0000 1.0000
vt 0.5833 1.0000 1.0000
vt 0.0000 0.5000 0.0000
vt 0.0000 0.0000 0.0000
vt 1.0000 0.0000 0.0000
vt 1.0000 0.5000 0.0000
vt 1.0000 0.9506 0.0000
vt 0.0000 0.9506 0.0000
vt 1.0000 1.0000 0.0000
vt 0.0000 1.0000 0.0000
vt 0.5000 1.0000 0.0000
vt 0.5000 0.0000 0.0000
vt 0.9506 0.0000 0.0000
vt 0.9506 1.0000 0.0000
vt 0.0494 0.0000 0.0000
vt 0.0494 1.0000 0.0000
vt 0.8056 0.0000 1.0000
vt 0.8056 0.1003 1.0000
vt 0.6944 0.1003 1.0000
vt 0.6944 0.0000 1.0000
vt 0.9167 0.1003 1.0000
vt 1.0278 0.0000 1.0000
vt 1.0278 0.1003 1.0000
vt 0.1389 0.0000 1.0000
vt 0.1389 0.1003 1.0000
vt 0.0278 0.1003 1.0000
vt 0.0278 0.0000 1.0000
vt 0.2500 0.1003 1.0000
vt 0.3611 0.0000 1.0000
vt 0.3611 0.1003 1.0000
vt 0.4722 0.0000 1.0000
vt 0.4722 0.1003 1.0000
vt 0.5833 0.1003 1.0000
vt 0.4145 0.7349 0.2500
vt 0.5000 0.5000 0.2500
vt 0.5855 0.7349 0.2500
vt 0.2835 0.6250 0.2500
vt 0.2538 0.4566 0.2500
vt 0.3393 0.3085 0.2500
vt 0.5000 0.2500 0.2500
vt 0.6607 0.3085 0.2500
vt 0.7462 0.4566 0.2500
vt 0.7165 0.6250 0.2500
vt 0.8056 0.1386 1.0000
vt 0.6944 0.1386 1.0000
vt 0.9167 0.1386 1.0000
vt 1.0278 0.1386 1.0000
vt 0.1389 0.1386 1.0000
vt 0.0278 0.1386 1.0000
vt 0.2500 0.1386 1.0000
vt 0.3611 0.1386 1.0000
vt 0.4722 0.1386 1.0000
vt 0.5833 0.1386 1.0000
vt 0.8056 1.0000 1.0000
vt 0.6944 1.0000 1.0000
vt 1.0278 1.0000 1.0000
vt 0.1389 1.0000 1.0000
vt 0.0278 1.0000 1.0000
vt 0.3611 1.0000 1.0000
vt 0.4722 1.0000 1.0000
vt 0.3290 0.9698 0.2500
vt 0.0670 0.7500 0.2500
vt 0.0076 0.4132 0.2500
vt 0.1786 0.1170 0.2500
vt 0.5000 0.0000 0.2500
vt 0.8214 0.1170 0.2500
vt 0.9924 0.4132 0.2500
vt 0.9330 0.7500 0.2500
vt 0.6710 0.9698 0.2500
# 88 texture coords

g Torret_Blockout
usemtl wire_115115115
s 8
f 1/1/1 2/2/2 3/3/2 4/4/3 
f 2/2/2 5/5/4 6/6/4 3/3/2 
f 5/7/4 7/8/5 8/9/5 6/10/4 
f 7/8/5 9/11/6 10/12/6 8/9/5 
f 9/11/6 11/13/7 12/14/7 10/12/6 
f 11/13/7 1/1/1 4/4/3 12/14/7 
f 13/4/1 14/3/2 15/15/2 16/16/1 
f 14/3/2 17/6/4 18/17/4 15/15/2 
f 17/10/4 19/9/5 20/18/5 18/19/4 
f 19/9/5 21/12/6 22/20/6 20/18/5 
f 21/12/6 23/14/7 24/21/7 22/20/6 
f 23/14/7 13/4/1 16/16/1 24/21/7 
s off
f 4/4/8 3/3/8 14/3/8 13/4/8 
f 3/3/8 6/6/8 17/6/8 14/3/8 
f 6/10/8 8/9/8 19/9/8 17/10/8 
f 8/9/8 10/12/8 21/12/8 19/9/8 
f 10/12/8 12/14/8 23/14/8 21/12/8 
f 12/14/8 4/4/8 13/4/8 23/14/8 
s 2
f 25/22/9 26/23/9 27/24/9 28/25/9 
f 25/22/9 28/25/9 29/26/9 30/27/9 
s 4
f 31/25/10 32/22/10 33/23/11 34/24/11 
f 35/27/8 32/22/10 31/25/10 36/26/8 
s 8
f 34/28/12 33/29/12 27/23/12 26/24/12 
s 16
f 31/30/1 34/29/1 26/23/1 25/31/3 
f 31/30/1 25/31/3 30/32/13 36/33/13 
s 32
f 37/28/14 38/29/14 39/23/14 40/24/14 
s 64
f 37/29/15 40/23/15 29/34/16 35/35/16 
f 33/28/17 32/30/18 28/31/5 27/24/17 
s 2
f 30/27/9 29/26/9 40/28/9 39/29/9 
s 4
f 35/27/8 36/26/8 38/28/8 37/29/8 
s 16
f 36/33/13 30/32/13 39/24/19 38/28/19 
s 64
f 35/35/16 29/34/16 28/31/5 32/30/18 
s 1
f 41/36/20 42/37/21 43/38/22 44/39/22 
f 45/2/23 46/40/23 42/37/21 41/36/20 
f 47/41/24 48/42/24 46/40/23 45/2/23 
f 49/43/25 50/44/25 48/45/24 47/46/24 
f 51/8/5 52/47/17 50/44/25 49/43/25 
f 53/48/26 54/49/26 52/47/17 51/8/5 
f 55/50/27 56/51/27 54/49/26 53/48/26 
f 57/13/28 58/52/28 56/51/27 55/50/27 
f 44/39/22 43/38/22 58/52/28 57/13/28 
f 59/53/12 60/54/12 61/55/12 
f 59/53/12 62/56/12 60/54/12 
f 62/56/12 63/57/12 60/54/12 
f 63/57/12 64/58/12 60/54/12 
f 64/58/12 65/59/12 60/54/12 
f 65/59/12 66/60/12 60/54/12 
f 66/60/12 67/61/12 60/54/12 
f 67/61/12 68/62/12 60/54/12 
f 68/62/12 61/55/12 60/54/12 
s 2
f 69/63/29 70/64/30 43/38/30 42/37/29 
f 71/65/31 69/63/29 42/37/29 46/40/31 
f 72/66/32 71/65/31 46/40/31 48/42/32 
f 73/67/33 72/68/32 48/45/32 50/44/33 
f 74/69/34 73/67/33 50/44/33 52/47/34 
f 75/70/35 74/69/34 52/47/34 54/49/35 
f 76/71/36 75/70/35 54/49/35 56/51/36 
f 77/72/37 76/71/36 56/51/36 58/52/37 
f 70/64/30 77/72/37 58/52/37 43/38/30 
s 1
f 78/73/21 79/74/22 70/64/22 69/63/21 
f 80/15/23 78/73/21 69/63/21 71/65/23 
f 81/75/24 80/15/23 71/65/23 72/66/24 
f 82/76/25 81/77/24 72/68/24 73/67/25 
f 83/18/17 82/76/25 73/67/25 74/69/5 
f 84/78/26 83/18/17 74/69/5 75/70/26 
f 85/79/27 84/78/26 75/70/26 76/71/27 
f 86/21/28 85/79/27 76/71/27 77/72/28 
f 79/74/22 86/21/28 77/72/28 70/64/22 
s 6
f 78/80/38 80/81/39 62/56/39 59/53/38 
f 80/81/39 81/82/40 63/57/40 62/56/39 
f 81/82/40 82/83/41 64/58/41 63/57/40 
f 82/83/41 83/84/42 65/59/42 64/58/41 
f 83/84/42 84/85/43 66/60/43 65/59/42 
f 84/85/43 85/86/44 67/61/44 66/60/43 
f 85/86/44 86/87/45 68/62/45 67/61/44 
f 86/87/45 79/88/46 61/55/46 68/62/45 
f 79/88/46 78/80/38 59/53/38 61/55/46 
# 68 polygons - 9 triangles

